<svg id="visual" viewBox="0 0 960 360" width="960" height="360" xmlns="http://www.w3.org/2000/svg" xmlns:xlink="http://www.w3.org/1999/xlink" version="1.1"><rect x="0" y="0" width="960" height="360" fill="#161616"></rect><path d="M0 234L22.8 230.8C45.7 227.7 91.3 221.3 137 223C182.7 224.7 228.3 234.3 274 233.3C319.7 232.3 365.3 220.7 411.2 212.3C457 204 503 199 548.8 200.2C594.7 201.3 640.3 208.7 686 208.5C731.7 208.3 777.3 200.7 823 195.5C868.7 190.3 914.3 187.7 937.2 186.3L960 185L960 361L937.2 361C914.3 361 868.7 361 823 361C777.3 361 731.7 361 686 361C640.3 361 594.7 361 548.8 361C503 361 457 361 411.2 361C365.3 361 319.7 361 274 361C228.3 361 182.7 361 137 361C91.3 361 45.7 361 22.8 361L0 361Z" fill="#6995fa"></path><path d="M0 222L22.8 230C45.7 238 91.3 254 137 255.7C182.7 257.3 228.3 244.7 274 244.8C319.7 245 365.3 258 411.2 264.3C457 270.7 503 270.3 548.8 270.5C594.7 270.7 640.3 271.3 686 262.5C731.7 253.7 777.3 235.3 823 225.2C868.7 215 914.3 213 937.2 212L960 211L960 361L937.2 361C914.3 361 868.7 361 823 361C777.3 361 731.7 361 686 361C640.3 361 594.7 361 548.8 361C503 361 457 361 411.2 361C365.3 361 319.7 361 274 361C228.3 361 182.7 361 137 361C91.3 361 45.7 361 22.8 361L0 361Z" fill="#527bf1"></path><path d="M0 250L22.8 250.3C45.7 250.7 91.3 251.3 137 257.5C182.7 263.7 228.3 275.3 274 273.7C319.7 272 365.3 257 411.2 254.5C457 252 503 262 548.8 263.2C594.7 264.3 640.3 256.7 686 259C731.7 261.3 777.3 273.7 823 277.2C868.7 280.7 914.3 275.3 937.2 272.7L960 270L960 361L937.2 361C914.3 361 868.7 361 823 361C777.3 361 731.7 361 686 361C640.3 361 594.7 361 548.8 361C503 361 457 361 411.2 361C365.3 361 319.7 361 274 361C228.3 361 182.7 361 137 361C91.3 361 45.7 361 22.8 361L0 361Z" fill="#4061e5"></path><path d="M0 280L22.8 284.5C45.7 289 91.3 298 137 297C182.7 296 228.3 285 274 283.8C319.7 282.7 365.3 291.3 411.2 292.8C457 294.3 503 288.7 548.8 288.5C594.7 288.3 640.3 293.7 686 292.5C731.7 291.3 777.3 283.7 823 285.2C868.7 286.7 914.3 297.3 937.2 302.7L960 308L960 361L937.2 361C914.3 361 868.7 361 823 361C777.3 361 731.7 361 686 361C640.3 361 594.7 361 548.8 361C503 361 457 361 411.2 361C365.3 361 319.7 361 274 361C228.3 361 182.7 361 137 361C91.3 361 45.7 361 22.8 361L0 361Z" fill="#3345d7"></path><path d="M0 329L22.8 325.3C45.7 321.7 91.3 314.3 137 314.5C182.7 314.7 228.3 322.3 274 326C319.7 329.7 365.3 329.3 411.2 328.5C457 327.7 503 326.3 548.8 323C594.7 319.7 640.3 314.3 686 313.3C731.7 312.3 777.3 315.7 823 316.3C868.7 317 914.3 315 937.2 314L960 313L960 361L937.2 361C914.3 361 868.7 361 823 361C777.3 361 731.7 361 686 361C640.3 361 594.7 361 548.8 361C503 361 457 361 411.2 361C365.3 361 319.7 361 274 361C228.3 361 182.7 361 137 361C91.3 361 45.7 361 22.8 361L0 361Z" fill="#2e24c7"></path></svg>