<svg id="visual" viewBox="0 0 900 600" width="900" height="600" xmlns="http://www.w3.org/2000/svg" xmlns:xlink="http://www.w3.org/1999/xlink" version="1.1"><rect x="0" y="0" width="900" height="600" fill="#001220"></rect><path d="M0 413L21.5 410C43 407 86 401 128.8 384.7C171.7 368.3 214.3 341.7 257.2 337.2C300 332.7 343 350.3 385.8 355.7C428.7 361 471.3 354 514.2 352.8C557 351.7 600 356.3 642.8 351.8C685.7 347.3 728.3 333.7 771.2 333.5C814 333.3 857 346.7 878.5 353.3L900 360L900 601L878.5 601C857 601 814 601 771.2 601C728.3 601 685.7 601 642.8 601C600 601 557 601 514.2 601C471.3 601 428.7 601 385.8 601C343 601 300 601 257.2 601C214.3 601 171.7 601 128.8 601C86 601 43 601 21.5 601L0 601Z" fill="#fa7268"></path><path d="M0 421L21.5 420.7C43 420.3 86 419.7 128.8 411.2C171.7 402.7 214.3 386.3 257.2 388.8C300 391.3 343 412.7 385.8 418.7C428.7 424.7 471.3 415.3 514.2 414.8C557 414.3 600 422.7 642.8 430C685.7 437.3 728.3 443.7 771.2 434.3C814 425 857 400 878.5 387.5L900 375L900 601L878.5 601C857 601 814 601 771.2 601C728.3 601 685.7 601 642.8 601C600 601 557 601 514.2 601C471.3 601 428.7 601 385.8 601C343 601 300 601 257.2 601C214.3 601 171.7 601 128.8 601C86 601 43 601 21.5 601L0 601Z" fill="#ef5f67"></path><path d="M0 462L21.5 453.8C43 445.7 86 429.3 128.8 428.8C171.7 428.3 214.3 443.7 257.2 453.8C300 464 343 469 385.8 460.7C428.7 452.3 471.3 430.7 514.2 428.2C557 425.7 600 442.3 642.8 448.3C685.7 454.3 728.3 449.7 771.2 448.7C814 447.7 857 450.3 878.5 451.7L900 453L900 601L878.5 601C857 601 814 601 771.2 601C728.3 601 685.7 601 642.8 601C600 601 557 601 514.2 601C471.3 601 428.7 601 385.8 601C343 601 300 601 257.2 601C214.3 601 171.7 601 128.8 601C86 601 43 601 21.5 601L0 601Z" fill="#e34c67"></path><path d="M0 507L21.5 498.7C43 490.3 86 473.7 128.8 473.8C171.7 474 214.3 491 257.2 491.5C300 492 343 476 385.8 468.2C428.7 460.3 471.3 460.7 514.2 460.3C557 460 600 459 642.8 460.2C685.7 461.3 728.3 464.7 771.2 468.8C814 473 857 478 878.5 480.5L900 483L900 601L878.5 601C857 601 814 601 771.2 601C728.3 601 685.7 601 642.8 601C600 601 557 601 514.2 601C471.3 601 428.7 601 385.8 601C343 601 300 601 257.2 601C214.3 601 171.7 601 128.8 601C86 601 43 601 21.5 601L0 601Z" fill="#d53867"></path><path d="M0 517L21.5 525C43 533 86 549 128.8 548C171.7 547 214.3 529 257.2 527.5C300 526 343 541 385.8 543.5C428.7 546 471.3 536 514.2 529.8C557 523.7 600 521.3 642.8 523.8C685.7 526.3 728.3 533.7 771.2 538.8C814 544 857 547 878.5 548.5L900 550L900 601L878.5 601C857 601 814 601 771.2 601C728.3 601 685.7 601 642.8 601C600 601 557 601 514.2 601C471.3 601 428.7 601 385.8 601C343 601 300 601 257.2 601C214.3 601 171.7 601 128.8 601C86 601 43 601 21.5 601L0 601Z" fill="#c62368"></path></svg>