<svg id="visual" viewBox="0 0 960 360" width="960" height="360" xmlns="http://www.w3.org/2000/svg" xmlns:xlink="http://www.w3.org/1999/xlink" version="1.1"><rect x="0" y="0" width="960" height="360" fill="#161616"></rect><path d="M0 270L22.8 274.3C45.7 278.7 91.3 287.3 137 292.8C182.7 298.3 228.3 300.7 274 296.7C319.7 292.7 365.3 282.3 411.2 281C457 279.7 503 287.3 548.8 287C594.7 286.7 640.3 278.3 686 274.3C731.7 270.3 777.3 270.7 823 276.2C868.7 281.7 914.3 292.3 937.2 297.7L960 303L960 361L937.2 361C914.3 361 868.7 361 823 361C777.3 361 731.7 361 686 361C640.3 361 594.7 361 548.8 361C503 361 457 361 411.2 361C365.3 361 319.7 361 274 361C228.3 361 182.7 361 137 361C91.3 361 45.7 361 22.8 361L0 361Z" fill="#2e24c7"></path><path d="M0 316L22.8 315.5C45.7 315 91.3 314 137 313.5C182.7 313 228.3 313 274 311.5C319.7 310 365.3 307 411.2 304.7C457 302.3 503 300.7 548.8 301.5C594.7 302.3 640.3 305.7 686 307.2C731.7 308.7 777.3 308.3 823 306.8C868.7 305.3 914.3 302.7 937.2 301.3L960 300L960 361L937.2 361C914.3 361 868.7 361 823 361C777.3 361 731.7 361 686 361C640.3 361 594.7 361 548.8 361C503 361 457 361 411.2 361C365.3 361 319.7 361 274 361C228.3 361 182.7 361 137 361C91.3 361 45.7 361 22.8 361L0 361Z" fill="#486eeb"></path><path d="M0 309L22.8 309.3C45.7 309.7 91.3 310.3 137 310.8C182.7 311.3 228.3 311.7 274 310.7C319.7 309.7 365.3 307.3 411.2 306.3C457 305.3 503 305.7 548.8 308C594.7 310.3 640.3 314.7 686 316.2C731.7 317.7 777.3 316.3 823 313.7C868.7 311 914.3 307 937.2 305L960 303L960 361L937.2 361C914.3 361 868.7 361 823 361C777.3 361 731.7 361 686 361C640.3 361 594.7 361 548.8 361C503 361 457 361 411.2 361C365.3 361 319.7 361 274 361C228.3 361 182.7 361 137 361C91.3 361 45.7 361 22.8 361L0 361Z" fill="#6995fa"></path><path d="M0 321L22.8 321.7C45.7 322.3 91.3 323.7 137 325C182.7 326.3 228.3 327.7 274 327.5C319.7 327.3 365.3 325.7 411.2 324.3C457 323 503 322 548.8 324C594.7 326 640.3 331 686 332.5C731.7 334 777.3 332 823 331C868.7 330 914.3 330 937.2 330L960 330L960 361L937.2 361C914.3 361 868.7 361 823 361C777.3 361 731.7 361 686 361C640.3 361 594.7 361 548.8 361C503 361 457 361 411.2 361C365.3 361 319.7 361 274 361C228.3 361 182.7 361 137 361C91.3 361 45.7 361 22.8 361L0 361Z" fill="#486eeb"></path><path d="M0 335L22.8 336.7C45.7 338.3 91.3 341.7 137 341.7C182.7 341.7 228.3 338.3 274 339C319.7 339.7 365.3 344.3 411.2 345.5C457 346.7 503 344.3 548.8 343.3C594.7 342.3 640.3 342.7 686 341.3C731.7 340 777.3 337 823 336.8C868.7 336.7 914.3 339.3 937.2 340.7L960 342L960 361L937.2 361C914.3 361 868.7 361 823 361C777.3 361 731.7 361 686 361C640.3 361 594.7 361 548.8 361C503 361 457 361 411.2 361C365.3 361 319.7 361 274 361C228.3 361 182.7 361 137 361C91.3 361 45.7 361 22.8 361L0 361Z" fill="#2e24c7"></path></svg>